<?xml version="1.0" encoding="utf-8"?>
<svg viewBox="0 0 500 500" xmlns="http://www.w3.org/2000/svg" xmlns:xlink="http://www.w3.org/1999/xlink" xmlns:bx="https://boxy-svg.com">
  <defs>
    <linearGradient id="gradient-17-0" gradientUnits="userSpaceOnUse" x1="1452.5" y1="2475" x2="1452.5" y2="3889" spreadMethod="pad" xlink:href="#gradient-17"/>
    <linearGradient id="gradient-17" bx:pinned="true">
      <stop offset="0.004" style="stop-color: rgb(8, 164, 254);"/>
      <stop offset="0.427" style="stop-color: rgb(0, 255, 234);"/>
      <stop offset="0.722" style="stop-color: rgb(5, 246, 234);"/>
      <stop offset="1" style="stop-color: rgb(0, 254, 140);"/>
    </linearGradient>
    <linearGradient id="gradient-17-1" gradientUnits="userSpaceOnUse" x1="1780.099" y1="2484.849" x2="1780.099" y2="3890" spreadMethod="pad" xlink:href="#gradient-17"/>
    <linearGradient id="gradient-17-2" gradientUnits="userSpaceOnUse" x1="1055.285" y1="2013.746" x2="1055.285" y2="3569.407" spreadMethod="pad" xlink:href="#gradient-17"/>
    <linearGradient id="gradient-17-3" gradientUnits="userSpaceOnUse" x1="2177.29" y1="2021.53" x2="2177.29" y2="3569.093" spreadMethod="pad" xlink:href="#gradient-17"/>
    <linearGradient id="gradient-17-4" gradientUnits="userSpaceOnUse" x1="613.994" y1="2876" x2="613.994" y2="3370" spreadMethod="pad" xlink:href="#gradient-17"/>
    <linearGradient id="gradient-17-5" gradientUnits="userSpaceOnUse" x1="2615.593" y1="2877" x2="2615.593" y2="3363.123" spreadMethod="pad" xlink:href="#gradient-17"/>
    <linearGradient id="gradient-17-6" gradientUnits="userSpaceOnUse" x1="992.007" y1="765.969" x2="992.007" y2="2820" spreadMethod="pad" xlink:href="#gradient-17"/>
    <linearGradient id="gradient-17-7" gradientUnits="userSpaceOnUse" x1="2237.766" y1="762.937" x2="2237.766" y2="2820" spreadMethod="pad" xlink:href="#gradient-17"/>
  </defs>
  <g transform="matrix(0.1, 0, 0, -0.1, 75.529779, 478.534095)" fill="#000000" stroke="none">
    <path d="M1363 3842 l-52 -47 -3 -153 -3 -153 37 -21 c32 -18 44 -20 84 -12 50 9 48 6 68 88 6 23 4 27 -8 22 -9 -3 -23 -9 -31 -12 -12 -5 -15 4 -15 53 l0 60 29 -5 c25 -3 31 -10 41 -50 7 -26 14 -83 17 -127 l4 -80 -61 -105 c-59 -99 -61 -106 -51 -140 29 -98 12 -154 -65 -219 -33 -26 -37 -35 -41 -93 -6 -73 14 -163 54 -248 l26 -55 7 38 c4 21 15 46 24 55 19 19 17 20 129 -108 l47 -55 -4 590 c-7 750 -4 705 -40 750 -19 23 -35 35 -47 32 -9 -3 -30 6 -45 19 -16 13 -33 23 -39 23 -5 0 -33 -21 -62 -47z" style="fill-rule: evenodd; fill: url(#gradient-17-0);"/>
    <path d="M1766 3866 c-15 -13 -36 -22 -45 -19 -12 3 -28 -9 -47 -34 -23 -30 -29 -50 -32 -98 -5 -104 -17 -1227 -13 -1230 3 -4 76 72 134 140 24 28 27 29 43 13 9 -9 20 -34 24 -55 l7 -38 26 55 c40 85 60 175 54 248 -4 59 -7 65 -46 99 -23 19 -48 48 -56 64 -18 34 -19 97 -4 150 11 35 9 42 -18 86 -79 126 -93 159 -93 217 0 31 7 89 16 127 12 55 19 69 32 67 10 -1 23 1 30 5 9 6 12 -6 12 -52 0 -62 -11 -76 -38 -49 -19 19 -22 5 -8 -47 12 -47 14 -49 58 -61 43 -11 50 -10 88 13 l42 25 -7 152 -6 151 -52 47 c-29 26 -56 48 -62 48 -5 -1 -23 -11 -39 -24z" style="fill-rule: evenodd; fill: url(#gradient-17-1);"/>
    <path d="M1124 3540 c-52 -26 -154 -108 -154 -124 0 -4 18 -3 39 0 21 3 55 1 75 -6 30 -10 36 -16 36 -39 0 -38 -29 -72 -103 -124 -78 -54 -108 -67 -157 -67 -44 0 -60 18 -60 67 l-1 28 -14 -27 c-8 -15 -22 -55 -30 -89 -13 -60 -13 -64 5 -82 16 -14 20 -31 20 -89 0 -69 -1 -71 -18 -52 -22 24 -42 69 -42 94 0 28 -16 25 -37 -7 -14 -21 -18 -48 -18 -111 l0 -84 42 -37 c30 -26 51 -57 69 -102 14 -35 30 -68 34 -73 5 -5 32 -13 61 -17 66 -10 80 -25 99 -99 l15 -60 57 45 c61 49 114 127 109 163 -2 18 2 22 23 22 35 0 44 -20 18 -38 -12 -8 -37 -35 -56 -61 -31 -43 -34 -52 -40 -154 l-7 -108 38 16 c21 9 49 24 63 33 23 17 71 99 85 146 4 15 8 16 20 6 20 -17 19 -43 -4 -57 -34 -21 -82 -122 -92 -192 -13 -89 -9 -96 40 -72 33 17 41 18 51 6 12 -14 2 -92 -19 -148 -17 -44 -14 -44 30 -2 54 53 92 128 91 180 -3 99 -4 123 -1 165 2 37 -10 78 -68 220 -93 228 -98 250 -78 294 9 19 48 64 86 101 43 42 69 75 69 88 0 12 -10 50 -22 84 l-22 63 49 71 c47 69 48 72 29 86 -32 25 -118 60 -193 79 -74 19 -88 36 -56 68 36 35 14 34 -61 -4z m-2 -383 c14 -12 41 -40 58 -62 29 -37 30 -40 13 -52 -46 -35 -137 -131 -173 -185 -41 -61 -50 -61 -28 0 11 29 10 35 -5 47 -29 21 -20 45 23 63 l40 17 0 78 c0 42 -3 77 -7 77 -5 -1 -39 -41 -77 -90 -38 -49 -80 -101 -93 -116 -13 -15 -23 -35 -23 -46 0 -21 -13 -24 -29 -5 -22 27 15 114 72 172 47 47 168 125 192 124 6 0 22 -10 37 -22z" style="fill-rule: evenodd; fill: url(#gradient-17-2);"/>
    <path d="M2044 3549 c22 -31 21 -59 -2 -59 -42 0 -228 -73 -255 -99 -5 -5 12 -39 37 -77 25 -37 46 -73 46 -78 0 -6 -9 -35 -20 -64 -30 -80 -28 -90 45 -162 36 -35 75 -79 86 -97 19 -30 20 -39 9 -81 -6 -26 -41 -119 -77 -207 -84 -206 -86 -215 -73 -267 9 -31 9 -52 0 -84 -19 -66 9 -141 78 -213 29 -31 51 -47 47 -36 -4 11 -14 51 -22 89 -18 82 -10 97 40 78 52 -21 52 -21 49 48 -3 73 -48 177 -89 210 -26 21 -29 42 -8 60 12 10 16 9 20 -6 14 -47 62 -129 85 -146 14 -9 42 -24 63 -33 l38 -16 -7 108 c-8 116 -19 144 -87 205 -32 29 -29 48 9 48 21 0 25 -4 22 -24 -4 -32 50 -114 106 -160 24 -20 49 -36 55 -36 10 0 31 61 31 92 0 28 48 58 95 58 51 0 66 15 90 89 12 38 31 66 62 95 41 38 45 47 50 101 6 63 -7 127 -31 160 -12 16 -15 17 -19 5 -18 -63 -32 -96 -48 -114 -19 -19 -19 -19 -19 49 0 55 4 73 20 90 19 20 19 24 5 77 -8 31 -21 72 -29 90 l-14 33 -1 -32 c-3 -93 -113 -82 -249 26 -28 23 -58 54 -67 70 -13 27 -13 31 4 53 16 19 28 23 79 23 52 0 59 2 49 15 -37 51 -128 114 -196 135 -23 7 -23 7 -7 -16z m146 -389 c119 -61 192 -135 216 -218 14 -46 14 -56 3 -63 -21 -13 -29 -11 -29 10 0 11 -26 50 -57 88 -32 38 -74 90 -93 116 -19 25 -38 47 -42 47 -5 0 -8 -36 -8 -80 0 -70 2 -80 18 -80 46 0 83 -60 46 -74 -12 -5 -14 -13 -9 -34 3 -15 9 -38 12 -52 4 -16 -11 -1 -37 38 -40 59 -140 165 -175 185 -13 7 -13 11 2 35 19 31 93 102 105 102 5 0 26 -9 48 -20z" style="fill-rule: evenodd; fill: url(#gradient-17-3);"/>
    <path d="M643 3340 c-90 -66 -131 -179 -80 -220 19 -16 22 -28 22 -89 0 -64 3 -74 33 -112 l32 -43 0 45 c0 39 10 88 35 165 5 16 2 23 -14 27 -16 4 -20 13 -20 48 0 24 -2 60 -6 79 -5 26 0 47 18 83 13 26 24 47 23 47 -1 0 -20 -14 -43 -30z" style="fill-rule: evenodd; fill: url(#gradient-17-4);"/>
    <path d="M2566 3322 c27 -54 30 -89 10 -118 -10 -13 -11 -25 -5 -35 15 -24 10 -51 -11 -56 -24 -6 -24 -10 -5 -57 9 -20 19 -69 23 -108 l7 -71 30 43 c26 38 30 52 30 113 0 59 3 71 23 87 26 21 29 64 8 114 -15 35 -80 107 -114 125 -17 9 -17 6 4 -37z" style="fill-rule: evenodd; fill: url(#gradient-17-5);"/>
    <path d="M521 2736 c-51 -83 -51 -84 -51 -168 0 -87 -17 -157 -45 -188 -8 -9 -22 -40 -31 -69 -12 -42 -13 -59 -4 -87 7 -21 9 -54 5 -82 -19 -131 5 -242 90 -414 45 -91 124 -218 136 -218 4 0 8 29 11 64 3 48 10 74 31 105 15 22 31 41 35 41 4 -1 25 -31 47 -67 22 -37 86 -114 141 -172 99 -103 102 -108 108 -161 4 -30 2 -61 -3 -69 -12 -18 -58 -17 -105 3 -46 19 -46 10 2 -31 128 -114 264 -196 401 -243 69 -24 174 -50 179 -45 2 2 -21 39 -51 84 l-55 81 -12 -31 c-16 -37 -39 -35 -59 5 -11 23 -11 35 -1 66 7 21 9 44 5 51 -6 9 -2 10 16 5 13 -4 49 -9 79 -12 84 -9 85 -10 56 -45 -29 -34 -29 -35 12 -139 34 -87 108 -220 130 -234 6 -3 7 211 5 537 l-5 542 -24 48 c-13 27 -24 55 -24 62 0 26 22 63 40 68 15 4 17 16 16 83 -1 52 -7 92 -19 117 -18 38 -18 39 3 44 18 5 20 13 20 87 0 79 -2 85 -38 137 -21 30 -44 54 -52 54 -26 0 -24 -45 3 -74 43 -47 42 -91 -3 -91 -44 0 -66 -144 -30 -190 20 -26 27 -70 10 -70 -5 0 -14 9 -20 19 -9 18 -14 15 -65 -36 l-56 -55 36 -83 c19 -45 44 -118 54 -161 20 -80 46 -262 39 -269 -8 -8 -105 77 -150 131 -94 114 -131 218 -144 405 l-7 95 -33 -4 c-31 -4 -35 -1 -49 32 -8 19 -15 47 -15 61 0 30 -5 31 -49 4 l-33 -20 4 -107 c3 -97 7 -113 37 -174 18 -37 31 -73 29 -80 -6 -17 -30 30 -58 112 -19 57 -37 213 -44 380 -1 35 -11 59 -46 110 l-44 64 -8 -29 c-4 -17 -13 -70 -19 -120 -8 -66 -16 -96 -31 -112 -22 -24 -20 -63 10 -160 14 -46 18 -52 38 -47 27 7 61 -33 115 -137 42 -80 50 -143 27 -195 -13 -28 -20 -20 87 -113 81 -70 192 -129 306 -162 l79 -23 0 -73 c0 -86 1 -86 -120 -52 -320 88 -564 364 -655 743 -14 55 -25 118 -25 139 0 21 -5 37 -11 37 -7 0 -49 -22 -95 -50 -46 -27 -85 -50 -89 -50 -9 0 -6 93 6 155 13 70 67 225 79 225 5 0 32 -50 62 -112 l53 -111 7 97 c8 106 20 156 49 198 24 34 23 53 -6 108 l-24 45 -1 -57 c0 -33 -4 -58 -10 -58 -13 0 -56 68 -89 138 -14 29 -28 52 -31 52 -4 0 -30 -38 -59 -84z m664 -1516 c-3 -16 -2 -31 4 -35 14 -8 14 -35 1 -35 -12 0 -60 93 -60 115 0 14 3 14 31 0 26 -14 29 -20 24 -45z" style="fill-rule: evenodd; fill: url(#gradient-17-6);"/>
    <path d="M2632 2786 c-16 -45 -89 -156 -102 -156 -6 0 -10 24 -10 56 0 30 -4 53 -8 50 -5 -3 -17 -29 -27 -59 l-18 -53 26 -40 c28 -42 46 -130 48 -229 l0 -60 56 113 c31 61 60 112 64 112 9 0 44 -92 65 -170 16 -59 31 -210 21 -210 -4 0 -44 23 -90 50 -46 28 -89 50 -95 50 -7 0 -12 -15 -12 -37 0 -113 -93 -374 -185 -518 -100 -157 -304 -310 -482 -360 -126 -36 -127 -36 -131 52 l-3 72 43 11 c143 36 235 84 361 188 72 60 92 91 67 107 -5 3 -10 29 -10 57 0 39 9 69 37 124 50 102 89 147 119 140 20 -5 24 -1 37 46 28 100 30 139 8 162 -14 15 -22 47 -30 111 -6 50 -15 103 -19 120 l-8 30 -47 -69 c-34 -52 -45 -76 -41 -95 3 -14 0 -46 -6 -71 -6 -25 -11 -77 -10 -115 1 -39 -5 -102 -13 -140 -16 -76 -67 -198 -75 -177 -2 7 11 43 29 80 30 61 34 77 37 174 l4 107 -33 20 c-44 27 -49 26 -49 -4 0 -14 -7 -42 -15 -61 -14 -33 -18 -36 -50 -32 l-35 4 0 -47 c0 -140 -40 -294 -99 -387 -40 -61 -146 -173 -183 -193 -19 -10 -19 -8 -13 48 19 170 53 305 107 419 l19 42 -55 55 c-52 51 -57 54 -66 36 -6 -10 -15 -19 -20 -19 -17 0 -11 41 10 67 37 47 14 193 -31 193 -10 0 -23 9 -29 20 -13 24 0 52 37 85 22 18 24 24 14 44 -17 30 -30 23 -73 -39 -37 -51 -38 -57 -38 -137 0 -67 3 -83 15 -83 19 0 19 -37 0 -70 -25 -43 -17 -180 10 -180 12 0 35 -41 35 -64 0 -8 -11 -38 -25 -68 l-25 -53 -1 -400 c-1 -220 -4 -462 -8 -538 -4 -90 -3 -136 4 -134 14 5 73 93 100 152 80 173 82 185 49 224 -29 35 -28 36 58 45 31 3 62 8 70 11 9 4 17 -11 26 -51 12 -48 11 -59 -3 -80 -21 -32 -40 -30 -55 7 l-13 30 -38 -58 c-21 -32 -46 -68 -55 -81 -9 -12 -15 -25 -12 -27 2 -3 46 7 98 20 178 48 317 122 451 241 75 67 82 78 37 60 -96 -39 -119 -27 -113 61 4 56 5 57 98 152 52 53 116 130 142 171 27 41 50 77 51 79 2 2 10 -2 18 -8 26 -22 56 -96 57 -142 2 -58 7 -64 28 -37 35 46 110 178 140 246 48 109 84 246 77 290 -17 94 -17 116 -6 156 10 36 9 51 -5 92 -9 27 -23 56 -30 64 -28 31 -45 102 -45 188 0 84 0 85 -51 168 -29 46 -55 84 -58 84 -4 0 -12 -15 -19 -34z m-557 -1581 c-26 -54 -54 -77 -40 -32 4 12 8 35 9 50 1 19 9 33 26 42 35 19 36 3 5 -60z" style="fill-rule: evenodd; fill: url(#gradient-17-7);"/>
  </g>
</svg>